<svg width="400" height="274" viewBox="0 0 400 274" fill="none" xmlns="http://www.w3.org/2000/svg">
<path d="M111.465 27.5934C111.465 30.7094 110.773 33.0464 109.389 34.6044C108.111 36.1624 105.981 36.9414 103 36.9414C102.787 39.1226 102.308 42.9138 101.563 48.3148C100.498 55.5855 99.9123 59.6363 99.8058 60.4672C90.3295 129.331 70.5784 163.763 40.5524 163.763C31.7149 163.763 24.7941 161.322 19.7897 156.44C14.8919 151.558 12.4429 145.43 12.4429 138.056C12.4429 124.865 18.1926 113.232 29.6919 103.156C41.1912 92.9775 56.3107 84.5643 75.0504 77.9168C76.2216 70.5423 77.1266 63.9468 77.7655 58.1302L80.6403 34.6044C74.2518 33.9812 68.2892 33.6696 62.7525 33.6696C47.9524 33.6696 37.0387 35.0718 30.0113 37.8762C22.984 40.6806 19.4703 45.2508 19.4703 51.5866C19.4703 54.7026 20.5351 58.0783 22.6646 61.7136C23.3034 62.7523 23.6228 63.8429 23.6228 64.9854C23.6228 67.1666 22.4516 69.1401 20.1092 70.9058C17.8732 72.5677 15.4242 73.3987 12.7624 73.3987C9.35516 73.3987 6.74651 71.9964 4.93644 69.192C1.95513 64.4142 0.464478 58.8573 0.464478 52.5214C0.464478 27.5934 22.8243 15.1294 67.5439 15.1294C80.5338 15.1294 92.1396 16.3758 102.361 18.8686C108.43 20.3227 111.465 23.231 111.465 27.5934ZM42.6287 147.092C47.8459 147.092 53.0632 143.249 58.2805 135.563C63.4978 127.877 68.0762 114.426 72.0158 95.2107C46.0359 106.324 33.0459 119.931 33.0459 136.03C33.0459 139.562 33.8977 142.314 35.6013 144.288C37.3049 146.157 39.6474 147.092 42.6287 147.092Z" fill="#FF3864"/>
<path d="M179.369 99.2615C180.753 99.2615 181.818 99.9366 182.563 101.287C183.309 102.637 183.681 104.351 183.681 106.428C183.681 111.414 182.137 114.374 179.05 115.309C172.661 117.49 165.634 118.736 157.967 119.048C155.944 127.773 151.952 134.784 145.989 140.081C140.026 145.274 133.265 147.871 125.706 147.871C119.317 147.871 113.834 146.365 109.255 143.353C104.783 140.341 101.376 136.342 99.0335 131.356C96.691 126.371 95.5198 120.97 95.5198 115.153C95.5198 107.259 97.0637 100.248 100.151 94.1201C103.239 87.8881 107.498 83.0583 112.928 79.6307C118.359 76.0992 124.375 74.3335 130.976 74.3335C139.068 74.3335 145.563 77.0859 150.461 82.5909C155.465 87.9919 158.393 94.6913 159.245 102.689C164.25 102.377 170.212 101.339 177.133 99.5731C177.985 99.3653 178.73 99.2615 179.369 99.2615ZM126.983 131.356C130.39 131.356 133.318 130.006 135.767 127.305C138.323 124.605 140.026 120.71 140.878 115.62C137.577 113.439 135.022 110.583 133.212 107.051C131.508 103.52 130.657 99.7808 130.657 95.8339C130.657 94.172 130.816 92.5101 131.136 90.8483H130.337C126.078 90.8483 122.511 92.8736 119.636 96.9245C116.868 100.871 115.484 106.48 115.484 113.751C115.484 119.464 116.602 123.826 118.838 126.838C121.18 129.85 123.895 131.356 126.983 131.356Z" fill="#FF3864"/>
<path d="M262.287 112.349C263.672 112.349 264.736 112.972 265.482 114.218C266.333 115.465 266.759 117.178 266.759 119.36C266.759 123.514 265.748 126.734 263.725 129.019C258.933 134.732 254.089 139.302 249.191 142.73C244.293 146.157 238.49 147.871 231.782 147.871C223.584 147.871 216.982 145.586 211.978 141.016C206.974 136.446 204.471 130.37 204.471 122.787C204.471 118.736 206.601 115.828 210.86 114.062C215.545 112.089 218.899 110.012 220.922 107.83C222.945 105.545 223.956 102.793 223.956 99.5731C223.956 97.7035 223.53 96.3013 222.679 95.3665C221.933 94.4317 220.975 93.9643 219.804 93.9643C216.929 93.9643 213.735 95.9897 210.221 100.04C206.814 104.091 203.62 109.337 200.638 115.776C197.657 122.112 195.314 128.656 193.611 135.407C192.44 140.289 191.055 143.613 189.458 145.378C187.968 147.04 185.572 147.871 182.271 147.871C178.971 147.871 176.522 146.729 174.924 144.444C173.434 142.055 172.422 138.419 171.89 133.537C171.358 128.656 171.091 121.489 171.091 112.037C171.091 96.0416 172.742 79.371 176.042 62.0252C179.45 44.6795 184.401 30.1381 190.896 18.4012C197.497 6.56039 205.376 0.639984 214.533 0.639984C219.431 0.639984 223.371 2.71732 226.352 6.87199C229.44 10.9228 230.984 16.22 230.984 22.7636C230.984 33.2542 227.843 44.1602 221.561 55.4816C215.279 66.6992 205.057 79.8384 190.896 94.8991C190.576 100.3 190.417 105.857 190.417 111.57C195.527 98.5863 201.384 89.1864 207.985 83.3699C214.587 77.4495 220.762 74.4893 226.512 74.4893C231.835 74.4893 236.094 76.255 239.289 79.7865C242.589 83.3179 244.24 87.6803 244.24 92.8737C244.24 98.5863 242.749 103.832 239.768 108.609C236.787 113.387 231.676 117.646 224.435 121.385C224.861 124.189 226.139 126.475 228.269 128.24C230.505 129.902 233.166 130.733 236.254 130.733C239.555 130.733 242.749 129.487 245.837 126.994C248.925 124.501 252.971 120.346 257.975 114.53C259.253 113.076 260.69 112.349 262.287 112.349ZM211.179 16.0642C209.263 16.0642 207.133 18.7647 204.791 24.1658C202.448 29.463 200.159 36.6817 197.923 45.822C195.794 54.8584 194.037 64.7258 192.653 75.4241C199.254 67.8418 204.684 59.5844 208.943 50.6518C213.309 41.7193 215.492 33.6177 215.492 26.347C215.492 23.0233 215.119 20.4785 214.374 18.7128C213.628 16.9471 212.563 16.0642 211.179 16.0642Z" fill="#FF3864"/>
<path d="M311.062 117.023C312.446 117.023 313.511 117.646 314.256 118.892C315.108 120.139 315.534 121.852 315.534 124.034C315.534 127.773 314.629 130.993 312.819 133.693C309.838 138.16 305.898 141.639 301 144.132C296.209 146.625 290.459 147.871 283.751 147.871C273.53 147.871 265.597 144.911 259.954 138.99C254.311 132.966 251.489 124.865 251.489 114.686C251.489 107.519 253.033 100.871 256.121 94.7433C259.209 88.5113 263.468 83.5776 268.898 79.9423C274.435 76.3069 280.664 74.4893 287.584 74.4893C293.76 74.4893 298.711 76.3069 302.438 79.9423C306.164 83.4737 308.028 88.3035 308.028 94.4317C308.028 101.598 305.366 107.779 300.042 112.972C294.825 118.061 285.881 122.112 273.21 125.124C275.766 129.902 280.078 132.291 286.147 132.291C290.512 132.291 294.079 131.304 296.848 129.331C299.723 127.357 303.023 124.034 306.75 119.36C308.028 117.802 309.465 117.023 311.062 117.023ZM284.869 89.7577C280.93 89.7577 277.576 91.9908 274.807 96.4571C272.146 100.923 270.815 106.324 270.815 112.66V112.972C277.097 111.518 282.048 109.337 285.668 106.428C289.288 103.52 291.098 100.144 291.098 96.3013C291.098 94.3278 290.512 92.7698 289.341 91.6273C288.276 90.3809 286.786 89.7577 284.869 89.7577Z" fill="#FF3864"/>
<path d="M176.645 272.598V146.4H206.352C212.208 146.4 217.266 147.023 221.525 148.269C225.89 149.516 229.51 151.437 232.385 154.034C235.26 156.631 237.389 159.954 238.774 164.005C240.158 167.952 240.85 172.626 240.85 178.027C240.85 183.22 240.158 187.739 238.774 191.582C237.496 195.321 235.473 198.281 232.705 200.462C230.043 202.644 226.582 204.046 222.323 204.669C227.541 205.811 231.746 207.785 234.941 210.589C238.135 213.29 240.477 216.821 241.968 221.184C243.565 225.442 244.364 230.584 244.364 236.608C244.364 242.009 243.725 246.943 242.447 251.409C241.169 255.875 239.146 259.666 236.378 262.782C233.716 265.898 230.256 268.339 225.997 270.105C221.844 271.767 216.893 272.598 211.143 272.598H176.645ZM194.693 259.978H206.831C214.923 259.978 220.3 258.16 222.962 254.525C225.73 250.786 227.115 244.813 227.115 236.608C227.115 231.311 226.369 226.896 224.879 223.365C223.494 219.73 221.205 217.029 218.011 215.263C214.923 213.394 210.717 212.459 205.394 212.459H194.693V259.978ZM194.693 199.06H205.394C210.504 199.06 214.497 198.385 217.372 197.035C220.247 195.581 222.27 193.296 223.441 190.18C224.612 187.063 225.198 183.013 225.198 178.027C225.198 172.211 224.293 168.004 222.483 165.407C220.673 162.811 217.851 161.201 214.018 160.577C210.185 159.85 205.181 159.487 199.005 159.487H194.693V199.06Z" fill="#B76D68"/>
<path d="M293.462 274C284.731 274 277.756 272.338 272.539 269.014C267.322 265.691 263.595 260.965 261.359 254.837C259.123 248.605 258.005 241.334 258.005 233.025V185.194C258.005 176.885 259.123 169.77 261.359 163.849C263.702 157.825 267.428 153.255 272.539 150.139C277.756 146.919 284.731 145.309 293.462 145.309C302.193 145.309 309.113 146.919 314.224 150.139C319.335 153.359 323.008 157.929 325.244 163.849C327.587 169.77 328.758 176.885 328.758 185.194V233.18C328.758 241.386 327.587 248.553 325.244 254.681C323.008 260.809 319.335 265.587 314.224 269.014C309.113 272.338 302.193 274 293.462 274ZM293.462 260.134C298.253 260.134 301.873 259.199 304.322 257.329C306.771 255.356 308.421 252.655 309.273 249.228C310.125 245.696 310.551 241.594 310.551 236.92V181.61C310.551 176.936 310.125 172.938 309.273 169.614C308.421 166.186 306.771 163.59 304.322 161.824C301.873 159.954 298.253 159.019 293.462 159.019C288.67 159.019 284.997 159.954 282.441 161.824C279.992 163.59 278.342 166.186 277.49 169.614C276.638 172.938 276.213 176.936 276.213 181.61V236.92C276.213 241.594 276.638 245.696 277.49 249.228C278.342 252.655 279.992 255.356 282.441 257.329C284.997 259.199 288.67 260.134 293.462 260.134Z" fill="#B76D68"/>
<path d="M360.711 272.598V159.487H338.83V146.4H400V159.487H378.758V272.598H360.711Z" fill="#B76D68"/>
</svg>
