<?xml version="1.0" standalone="no"?>
<!DOCTYPE svg PUBLIC "-//W3C//DTD SVG 20010904//EN"
 "http://www.w3.org/TR/2001/REC-SVG-20010904/DTD/svg10.dtd">
<svg version="1.0" xmlns="http://www.w3.org/2000/svg"
 width="800.000000pt" height="800.000000pt" viewBox="0 0 800.000000 800.000000"
 preserveAspectRatio="xMidYMid meet">
<metadata>
Created by potrace 1.11, written by Peter Selinger 2001-2013
</metadata>
<g transform="translate(0.000000,800.000000) scale(0.100000,-0.100000)"
fill="#000000" stroke="none">
<path d="M4169 6707 c-175 -53 -329 -243 -463 -569 -56 -137 -134 -387 -152
-485 -3 -14 -11 -53 -19 -87 -8 -33 -17 -77 -20 -96 -3 -19 -9 -60 -15 -90 -5
-30 -12 -71 -15 -90 -7 -42 -42 -329 -43 -350 -3 -87 -16 -207 -23 -214 -10
-11 -146 -35 -200 -35 -35 -1 -37 0 -42 42 -29 222 -187 429 -373 491 -74 24
-90 27 -184 27 -213 1 -400 -92 -543 -271 -63 -78 -129 -238 -154 -373 -9 -50
-8 -277 1 -327 29 -144 121 -301 223 -380 51 -39 154 -90 191 -95 15 -2 27 -4
27 -5 0 -5 50 -11 118 -15 78 -4 181 11 242 36 17 7 36 13 43 15 8 1 21 9 30
16 10 8 30 20 46 28 44 22 148 128 196 198 46 69 94 176 105 235 4 20 10 39
14 41 4 3 38 7 76 10 68 6 99 10 158 22 21 4 27 2 28 -13 0 -10 2 -58 4 -108
9 -240 31 -353 83 -424 l25 -34 0 -1258 0 -1259 26 -1 c132 -3 747 1 782 5
218 30 380 137 463 308 20 42 39 85 41 97 2 11 6 24 8 29 6 8 17 71 24 127 8
66 7 267 -1 320 -11 71 -51 188 -81 238 -61 102 -145 167 -274 212 l-64 22 48
12 c166 42 279 182 302 375 9 69 9 229 0 292 -28 207 -137 357 -307 422 -108
41 -92 37 -230 59 -14 2 -130 4 -257 4 -128 0 -233 2 -233 4 0 2 11 20 24 40
25 36 36 65 76 205 55 188 96 295 173 444 84 165 212 319 285 343 91 31 143
-14 137 -117 -5 -104 -57 -167 -197 -242 -28 -16 -55 -28 -60 -28 -25 0 -90
-57 -109 -97 -18 -38 -21 -56 -16 -122 3 -42 11 -90 17 -106 6 -17 11 -31 10
-33 -1 -2 10 -26 24 -55 48 -98 160 -195 262 -226 21 -7 46 -15 54 -18 25 -10
60 -13 160 -17 91 -3 177 10 245 36 43 16 145 78 180 109 17 14 46 40 65 56
l34 31 64 -64 c72 -72 184 -132 289 -155 l63 -13 -43 -16 c-85 -32 -183 -115
-234 -196 -64 -101 -105 -248 -118 -414 -4 -58 -8 -368 -5 -385 1 -6 2 -14 1
-20 -3 -12 -2 -209 0 -222 1 -4 1 -12 0 -18 -3 -12 -2 -209 0 -222 1 -4 1 -12
0 -18 -7 -38 4 -372 14 -415 3 -14 7 -41 10 -60 6 -47 43 -167 63 -205 9 -16
16 -32 17 -35 3 -20 62 -95 112 -140 85 -79 183 -124 318 -148 54 -9 287 -9
352 1 65 9 166 45 227 81 156 91 269 309 293 566 9 93 9 1205 0 1280 -18 156
-64 295 -130 394 -27 40 -98 107 -149 139 -57 36 -160 77 -212 83 -17 2 -40 6
-51 8 -11 2 -29 5 -40 5 -13 1 -4 9 27 25 52 26 111 66 116 78 2 4 10 8 18 8
8 0 14 3 14 8 0 4 21 29 47 57 93 100 129 245 83 339 -22 46 -45 60 -85 52
-11 -3 -23 -5 -27 -5 -4 -1 -24 -20 -45 -43 -90 -101 -191 -195 -233 -215 -60
-29 -100 -37 -189 -35 -60 1 -85 7 -130 29 -51 26 -122 96 -109 108 3 3 38 15
79 26 99 27 243 80 247 90 2 5 10 9 19 9 25 0 148 85 201 140 56 57 114 162
126 225 5 22 10 51 13 65 6 29 6 25 0 107 -11 136 -71 233 -184 300 -91 53
-271 66 -408 28 -227 -62 -403 -241 -491 -500 -33 -100 -35 -110 -39 -280 l-4
-140 -60 -57 c-87 -81 -152 -114 -236 -122 -17 -1 -65 6 -111 17 -49 12 -117
87 -128 142 -6 28 -3 32 36 52 81 39 207 147 256 218 12 17 63 114 62 117 -1
2 1 10 4 18 3 8 12 44 19 80 30 152 -1 283 -90 375 -43 44 -83 78 -83 70 0 -3
-15 2 -32 12 -25 13 -58 17 -133 18 -98 0 -102 -1 -185 -42 -120 -60 -226
-149 -306 -258 -24 -33 -48 -64 -52 -70 -30 -39 -115 -200 -157 -301 l-25 -59
2 154 c2 87 7 164 14 175 6 12 33 44 60 72 43 45 107 117 166 188 10 12 29 35
43 51 14 17 45 55 68 85 23 30 52 66 65 80 12 14 22 28 22 32 0 3 6 13 13 20
31 31 153 228 203 326 156 308 197 649 100 840 -82 162 -224 222 -397 169z
m88 -302 c35 -25 53 -102 49 -213 -2 -53 -6 -106 -9 -117 -5 -24 -19 -98 -19
-105 0 -3 -3 -9 -8 -15 -4 -5 -15 -35 -24 -66 -21 -74 -136 -301 -210 -414
-32 -49 -62 -92 -65 -95 -4 -3 -18 -21 -31 -40 -14 -19 -35 -46 -47 -60 -13
-14 -23 -28 -23 -32 0 -5 -4 -8 -10 -8 -5 0 -8 6 -5 13 2 6 6 31 9 53 8 68 39
257 51 314 3 14 8 39 10 55 3 17 8 37 10 45 2 8 6 26 9 40 2 14 9 45 16 70 7
25 14 52 16 60 51 217 149 457 205 504 35 30 46 32 76 11z m1506 -1477 c29
-15 57 -70 57 -112 0 -45 -19 -116 -32 -116 -4 0 -8 -6 -8 -12 0 -21 -95 -101
-151 -129 -99 -48 -208 -85 -210 -71 -14 81 45 293 97 351 89 99 173 129 247
89z m-3147 -100 c1 -105 27 -210 60 -249 8 -8 14 -20 14 -25 0 -12 76 -91 105
-110 22 -14 22 -17 10 -67 -14 -61 -46 -137 -57 -137 -5 0 -8 -5 -8 -11 0 -6
-17 -26 -37 -46 -135 -128 -316 -70 -374 119 -19 61 -21 246 -3 328 9 41 19
80 23 85 3 6 6 15 7 22 3 21 62 100 96 128 37 32 68 45 123 55 22 4 40 8 40 9
1 0 1 -45 1 -101z m3379 -1282 c49 -11 118 -59 147 -103 63 -93 63 -96 63
-873 0 -654 -2 -738 -21 -817 -11 -44 -50 -116 -76 -140 -112 -103 -377 -101
-482 4 -36 36 -73 109 -80 159 -4 22 -9 51 -12 64 -9 37 -11 1336 -2 1405 9
69 27 140 44 173 32 62 102 113 181 131 41 9 189 7 238 -3z m-1762 -12 c37 -6
67 -10 67 -8 0 10 99 -41 122 -63 67 -64 95 -213 75 -398 -19 -169 -92 -263
-225 -290 -76 -16 -357 -23 -370 -10 -4 4 -7 182 -7 397 l-1 389 136 -2 c74
-2 165 -8 203 -15z m22 -1058 c88 -21 171 -78 212 -145 51 -82 74 -185 73
-331 -1 -118 -6 -158 -29 -238 -49 -173 -142 -219 -451 -219 l-166 -1 0 475 1
474 165 -4 c91 -2 179 -7 195 -11z"/>
<path d="M1158 6435 c-2 -2 -50 -6 -108 -9 -109 -8 -151 -12 -198 -21 -15 -3
-45 -8 -67 -10 -59 -8 -160 -33 -245 -62 -267 -89 -420 -219 -495 -423 -25
-67 -28 -88 -29 -205 -1 -168 18 -244 83 -346 65 -104 220 -115 318 -23 60 57
68 105 28 184 -43 85 -54 129 -51 204 4 81 20 117 76 175 49 50 172 109 237
113 5 0 19 4 32 9 33 13 97 22 241 36 80 7 475 7 525 0 17 -3 47 -5 69 -6 l38
-1 -7 -57 c-4 -32 -8 -71 -10 -88 -2 -29 -9 -84 -21 -170 -3 -22 -7 -56 -9
-75 -15 -138 -15 -131 -30 -240 -3 -25 -8 -56 -10 -70 -12 -95 -18 -137 -20
-150 -2 -12 -56 -40 -130 -65 -11 -4 -22 -8 -25 -10 -3 -1 -14 -5 -25 -10
-301 -123 -579 -294 -764 -469 -35 -34 -68 -65 -73 -71 -153 -175 -232 -366
-237 -576 -4 -170 41 -283 154 -393 102 -98 229 -140 420 -138 121 1 301 49
327 86 4 6 8 8 8 3 0 -25 215 160 260 224 13 19 32 40 42 47 10 7 18 17 18 22
0 5 20 40 44 77 81 127 165 310 230 505 39 118 66 205 72 231 2 9 6 25 8 35 2
9 9 37 16 62 20 73 55 227 63 275 3 17 15 82 27 145 12 63 23 124 24 135 2 11
9 56 15 100 19 130 21 139 25 165 3 14 7 48 10 75 4 28 8 61 11 75 10 55 27
189 30 229 1 19 6 36 11 37 5 2 27 8 50 13 71 19 103 62 111 151 5 48 2 65
-18 99 -25 46 -50 65 -112 88 -45 16 -146 40 -212 49 -22 3 -51 8 -65 10 -14
3 -50 7 -80 9 -30 2 -55 5 -55 5 0 8 -519 22 -527 15z m278 -1622 c-6 -19 -22
-91 -30 -133 -10 -55 -86 -321 -103 -360 -3 -8 -7 -17 -8 -20 -1 -3 -6 -20
-10 -37 -4 -18 -14 -38 -21 -44 -8 -6 -14 -19 -14 -28 -1 -42 -109 -207 -186
-284 -95 -95 -192 -127 -284 -94 -41 15 -92 56 -84 69 3 4 1 8 -4 8 -18 0 -35
115 -27 186 27 266 232 492 625 688 72 36 136 66 142 66 5 0 7 -8 4 -17z"/>
<path d="M6779 3795 c-4 -62 -4 -222 -1 -232 3 -10 56 -13 217 -13 161 0 214
-3 217 -12 2 -7 3 -516 3 -1130 l-1 -1118 98 -1 c125 -1 223 -1 246 0 16 1 17
61 17 1129 l0 1127 213 3 212 2 0 130 c0 128 0 130 -22 131 -13 0 -287 1 -610
2 -582 2 -588 2 -589 -18z"/>
</g>
</svg>
